<svg width="323" height="110" viewBox="0 0 323 110" fill="none" xmlns="http://www.w3.org/2000/svg">
<circle cx="50" cy="55" r="50" fill="#B33030"/>
<path d="M173.732 60.2402H157.033V89H147.609V17.9062H171.145C179.152 17.9062 185.305 19.7292 189.602 23.375C193.931 27.0208 196.096 32.3268 196.096 39.293C196.096 43.7201 194.891 47.5775 192.482 50.8652C190.106 54.153 186.786 56.6107 182.521 58.2383L199.221 88.4141V89H189.162L173.732 60.2402ZM157.033 52.5742H171.438C176.092 52.5742 179.787 51.3698 182.521 48.9609C185.288 46.5521 186.672 43.3294 186.672 39.293C186.672 34.8984 185.354 31.5293 182.717 29.1855C180.113 26.8418 176.337 25.6536 171.389 25.6211H157.033V52.5742ZM249.465 56.1387H218.654V81.334H254.445V89H209.279V17.9062H253.957V25.6211H218.654V48.4727H249.465V56.1387ZM318.41 66.4414C317.531 73.9609 314.748 79.7715 310.061 83.873C305.406 87.9421 299.204 89.9766 291.457 89.9766C283.059 89.9766 276.32 86.9655 271.242 80.9434C266.197 74.9212 263.674 66.8646 263.674 56.7734V49.9375C263.674 43.3294 264.846 37.5189 267.189 32.5059C269.566 27.4928 272.919 23.6517 277.248 20.9824C281.577 18.2806 286.59 16.9297 292.287 16.9297C299.839 16.9297 305.894 19.0456 310.451 23.2773C315.008 27.4766 317.661 33.3034 318.41 40.7578H308.986C308.173 35.0938 306.398 30.9922 303.664 28.4531C300.962 25.9141 297.17 24.6445 292.287 24.6445C286.298 24.6445 281.594 26.8581 278.176 31.2852C274.79 35.7122 273.098 42.0111 273.098 50.1816V57.0664C273.098 64.7812 274.709 70.9173 277.932 75.4746C281.154 80.0319 285.663 82.3105 291.457 82.3105C296.665 82.3105 300.653 81.1387 303.42 78.7949C306.219 76.4186 308.075 72.3008 308.986 66.4414H318.41Z" fill="#B33030"/>
</svg>
